<?xml version="1.0" encoding="utf-8"?>
<!-- Svg Vector Icons : http://www.onlinewebfonts.com/icon -->
<!DOCTYPE svg PUBLIC "-//W3C//DTD SVG 1.1//EN" "http://www.w3.org/Graphics/SVG/1.1/DTD/svg11.dtd">
<svg version="1.1" xmlns="http://www.w3.org/2000/svg" xmlns:xlink="http://www.w3.org/1999/xlink" x="0px" y="0px" viewBox="0 0 1000 1000" enable-background="new 0 0 1000 1000" xml:space="preserve">
<metadata> Svg Vector Icons : http://www.onlinewebfonts.com/icon </metadata>
<g><g><g><path d="M979.3,562.3c-0.2-14.2-2-27.9-8.3-40.8c-6.2-12.6-17.5-21.9-28.9-29.6c-36.6-24.7-79.5-41.2-120.5-57c-17.9-6.9-35.9-13.5-53.8-20.4c0.7-12.9-2.1-25.9-14.3-32.5c-12.1-6.5-27.9-3.9-40.8-2.3c-0.2,0-0.3,0.1-0.5,0.1c-1.4-1.5-2.8-3-4.2-4.5c-12.9-14.3-23.8-30.2-36.3-44.9c-14.8-17.5-33-32-48.8-48.6c-0.3-0.3-0.6-0.6-0.9-0.9c-1.6-2.2-4.2-3.4-7.6-2.3c-0.4,0.1-0.9,0.3-1.3,0.4c-24.1-7.8-48.9-13.3-73.6-19.2c-0.9-0.2-1.6-0.2-2.4-0.2c-4.2-8.3-8.1-16.7-9.9-25.9c-0.7-3.4-2.9-5-5.5-5.3c-5.7-2-11.2-4.4-16.8-6.6c-1.3-2.9-4.3-4.9-8.3-3.3c-31.9,12.7-69.1,16-103.2,13.5c-5.8-0.4-8.1,4.9-6.9,9.3c-2.8,0.6-5.6,1.7-8.2,3l0,0c-14.5,6.1-31.4,8.5-46.8,11.3c-17.7,3.2-35.5,5.3-53.3,7.3c-33.1,3.6-66.4,6.6-99.4,11.4c-14.6,2.1-28.7,5.7-42.2,11.9c-11.9,5.5-22.3,14.7-32,23.3c-20.1,17.7-38.9,39.2-49.8,64c-14.8,3.7-30.1,7.3-36.7,22.8c-4.4,10.4-4.6,22.2-4.7,33.3c-0.2,13.1,1.1,26.3,3.3,39.3c-3.6,0.6-7,3.6-6.6,7.4c2.4,19.6,8.2,37.8,19.4,54.1c10.6,15.5,24.9,27.9,39.3,39.6c0.2,18.6,5.5,37.2,16.5,51.5c10.1,13.1,24.1,26.8,40.1,34.3c3.5,2.2,7.2,4.1,11.1,5.2c0.2,0.2,0.5,0.4,0.8,0.5c2.7,0.6,5.4,0.7,8.1,1.3c0.2,0,0.4,0,0.6,0c3.8,0.4,7.6,0.3,11.3-0.5c12.8-1.7,25.4-3.6,37.2-9.2c11.5-5.4,18.9-15.8,23-27.4c82.5,27.2,166.8,49.1,252.7,62c0.5,0.1,1.1,0.1,1.6,0.1c1.2,0.3,2.5,0.3,3.7-0.1c2.9-1,5.7-2.2,8.5-3.6c1.4,12.3,4,24.3,7.1,35.5c3,10.9,7.6,21.3,13.5,30.3c0.1,0.7,0.5,1.4,1.2,1.7c13.9,20.2,35,33.4,62.8,30.1c3.7-0.4,7.3-1.3,10.7-2.5c0.2,0,0.4,0,0.6,0c18.7-1.9,41.3-5.4,56.2-17.8c12.2-10.1,13.8-23.9,15.7-38.4c23.7,4.7,47.7,7.2,71.9,3.5c23.3-3.6,45.9-11.9,68.7-17.8c6.6-1.7,13.2-3.4,19.8-5.1c10.8,14.7,26.4,22.4,44.7,15.3c17.4-6.8,30.8-22.3,41.2-37.2c0.3-0.4,0.4-0.7,0.6-1.1c9.9-3,19.6-6.2,29.3-9.8c15.5-5.8,30.4-13,42.4-24.6C990.8,626.5,997.8,585.6,979.3,562.3z M949.4,517c1.6,1.7,3.2,3.5,4.7,5.5c5.5,7.5,8.1,16.3,9.3,25.3c-0.5,0.2-1,0.5-1.6,0.8c-9.1,5.9-27.8,13.6-41.8,12.1c6.2-11.2,7.8-25.5,10.9-37.8C937,520.6,943.3,518.9,949.4,517z M910.3,556.7c3.1-10,8.1-19.4,10.3-29.6c2-1,4-1.9,6-2.7c-2.8,11.8-4.5,25.2-10.6,35.5c-2.2-0.6-4.2-1.5-6-2.7C910.1,557,910.2,556.9,910.3,556.7z M907.1,554.3c-6.3-8.1,1.6-19.9,8.7-24.5c0.1,0,0.2-0.1,0.2-0.1C913.7,538.1,909.8,546,907.1,554.3z M752.7,408.6c-2.2-0.9-4.3-1.9-6.4-3c1.4-2,2.8-4,4.2-6.1C752,402.1,752.6,405.3,752.7,408.6z M748,396.5c-1.6,2.5-3.4,4.9-5,7.3c-1.2-0.6-2.3-1.3-3.5-2c1.7-2.5,3.4-4.9,5.1-7.3C746,395.1,747.1,395.8,748,396.5z M736.4,393.1c1.5,0.1,2.9,0.3,4.4,0.5c-1.5,2.1-3,4.1-4.4,6.3c-0.9-0.6-1.8-1.1-2.6-1.7C734.5,396.5,735.4,394.8,736.4,393.1z M732.2,393c-0.5,1-1.1,2-1.6,3.1c-1.3-1-2.6-1.9-3.9-2.9C728.6,393,730.4,393,732.2,393z M691.6,379.5c3.8,4.5,7.7,8.9,11.8,13.1c-11.5,1.9-22.9,3.7-34.4,5.5c5.4-9.2,10.8-18.4,14.8-28.2C686.4,373.1,689,376.3,691.6,379.5z M615.1,295.4c13.5,13.9,28.3,26.5,41.5,40.7c6.3,6.8,12.1,14,17.8,21.3c-4.7,15.5-14,29.2-21.9,43.2c-58.1,8.8-116.4,16.8-174.5,25.8c-4.6-7.8-9-15.6-13.2-23.5c19.5-31.3,39.9-62.2,55.2-95.8c3.9-0.3,7.8-0.5,11.7-0.8c27.3-1.8,54.8-3.9,81.1-11.6C613.5,294.9,614.3,295.2,615.1,295.4z M490.3,312.1c0.5-0.9,0.7-1.7,0.8-2.5c4.6-0.5,9.2-0.9,13.7-1.3c-13.7,28.2-30.6,54.5-47.2,81c-1.1-2.3-2.3-4.5-3.4-6.8C464.8,358.3,477.4,335.1,490.3,312.1z M446.9,367c-2.3-4.9-4.7-9.9-7-14.9c-3.8-8.2-7.2-16.8-9.3-25.7c-2.5-10.6,11.1-10.6,18.7-11.2c8.9-0.7,17.5-2.2,26.2-3.6C465.4,329.8,455.5,348.1,446.9,367z M471.8,241.6c0.8,4,2.2,8,3.3,11.5c2.5,8.1,5.5,16.2,8.7,24.1c-9.1,0.3-18.1,0.5-27.1,1.1c-0.9-10-2.9-20-2.1-30.1c0.1-1.3-0.1-2.4-0.5-3.3C460.1,244,466,242.9,471.8,241.6z M422.1,247.6c5.9-0.2,11.9-0.5,17.8-1c-0.1,0.5-0.2,1.1-0.3,1.6c-0.8,10.7,1.5,21.1,2.3,31.7c-6.8,1-13.6,2.3-20.3,4.3C418.6,272.5,422.6,259.7,422.1,247.6z M400.4,247.4c2.2,0.1,4.4,0.2,6.7,0.2c0.1,2.1,0.1,4.3,0,6.4c-2.9-0.5-5.8-1.1-8.4-2.2C399.2,250.4,399.8,248.9,400.4,247.4z M397.2,255.4c3.1,1.2,6.3,1.8,9.6,2.4c-0.1,1.9-0.3,3.7-0.4,5.6c-1.4-0.5-2.7-1.1-3.9-1.6c-2.3-0.9-4.5-1.8-6.8-2.7C396.2,257.8,396.7,256.6,397.2,255.4z M394.4,262.5c2.4,0.9,4.8,1.9,7.1,2.8c1.5,0.6,3,1.2,4.6,1.8c-0.1,1.2-0.2,2.4-0.2,3.5c-4.2-1.7-8.5-3.5-12.9-4.7C393.5,264.8,393.9,263.7,394.4,262.5z M391.6,269.5c4.8,1.3,9.5,3.3,14.1,5.2c0,1,0,2.1,0,3.1c-5.2-1.6-10.1-3.9-15.2-5.8C390.9,271.2,391.3,270.3,391.6,269.5z M389.1,275.5c5.6,2.1,11.1,4.7,16.9,6.3c0.1,1.3,0.3,2.6,0.5,3.9c-6.4-1.7-12.5-4.7-18.6-7.3C388.3,277.5,388.7,276.5,389.1,275.5z M273.9,305.6c17.3,1.7,34.5,4,51.6,7.1c14.1,2.5,28.4,5.3,41.1,12c21.1,11.1,35.3,34.1,46.7,54.2c7.3,12.8,13.3,26.3,19.1,39.8c2.9,6.7,5.7,13.3,8.5,20c1.6,3.7,3.1,7.3,4.7,10.9c0.7,1.7,2,3.5,2.9,5.4c-0.2,0.3-0.4,0.7-0.6,1.1c-12.9,29.8-24.6,60.4-31.2,92.2c-3.4,16.4-4.5,32.9-2.5,49.5c1.6,13.3,4.7,26.3,7.2,39.5c-34.6-12.9-72-18.2-108.1-25.3c-21.8-4.3-43-10.9-64.1-17.6c0.9-31.4-1.4-62.9,0-94.3c1.1-24.7-4-51.8,3.4-75.8c0.5-1.6,0.4-3,0.1-4.2c30.3,8,60.5,16.4,91.5,21.3c1,8.3,4.9,15.6,13.9,20c18.7,9.1,43.2,0.4,62.6-1.5c3.6-0.3,6-2.1,7.2-5.5c1.6-4.4,4.8-7.8,6.8-12c0,0,0,0,0,0c2.6-2.7,3.4-6.9,0.1-10.3c-11.1-11.2-21.7-23-29.7-36.7c-2.3-3.9-27.4-38.5-38-57c-0.5-0.9-1.1-1.6-1.8-2.1c-0.1-0.2-0.2-0.4-0.4-0.5c-1.8-2.3-4.4-2.9-6.9-4c-0.1-0.1-0.2-0.1-0.4-0.2c0,0,0,0-0.1,0c-0.1-0.1-0.3-0.1-0.4-0.1c-0.3-0.1-0.5-0.2-0.8-0.2c-28.5-5.1-55.8-14.7-83.9-21.3c-1.2-0.3-2.3-0.3-3.3-0.1c-3.1-0.2-6.3,1.3-7.2,5.3c-0.1,0.4-0.2,0.7-0.2,1.1c-1.6-1.2-3.2-2.4-4.6-3.9c-1.7-1.7-4.4,1-2.7,2.7c2,1.9,4.1,3.7,6.4,5.2c-0.4,1.8-0.8,3.6-1.2,5.4c-0.5-0.4-0.9-0.8-1.4-1.2c-1.7-1.7-4.4,1-2.7,2.7c0.9,0.9,2,1.9,3.2,2.6c-0.4,2-0.8,3.9-1.2,5.9c-0.8-0.6-1.6-1.3-2.4-2.1c-1.7-1.7-4.4,1-2.7,2.7c1.4,1.3,2.8,2.4,4.3,3.4c-0.3,1.8-0.7,3.6-1,5.4c-1.2-0.9-2.3-1.8-3.5-2.7c-1.9-1.5-3.8,1.8-1.9,3.2c1.6,1.2,3.1,2.4,4.6,3.6c-0.3,1.8-0.6,3.5-1,5.3c-1.7-1-3.4-1.9-5.2-2.6c-2.2-0.9-3.2,2.7-1,3.6c1.9,0.8,3.8,1.8,5.5,2.9c-0.4,1.9-0.7,3.8-1.1,5.7c-1.5-1.3-3.1-2.6-4.8-3.7c-2.1-1.3-4,2-1.9,3.2c2.2,1.3,4.1,3,5.9,4.8c-0.4,2.1-0.8,4.2-1.2,6.3c-1.3-1-2.7-1.9-4-2.8c-2-1.4-3.8,1.8-1.9,3.2c1.7,1.2,3.4,2.4,5,3.6c-0.3,1.4-0.6,2.8-0.9,4.1c-1.7-1.9-3.6-3.5-5.4-5.3c-1.7-1.7-4.4,1-2.7,2.7c2.1,2.1,4.5,3.9,6.3,6.2c0.2,0.3,0.5,0.5,0.8,0.6c-0.3,1.3-0.6,2.6-0.9,3.9c-1.5-1.2-3-2.4-4.5-3.5c-1.9-1.5-3.8,1.8-1.9,3.2c1.8,1.4,3.6,2.8,5.3,4.4c-0.7,2.7-1.5,5.3-2.3,8c-1.4-1.2-2.6-2.4-3.8-3.9c-1.5-1.9-4.2,0.8-2.7,2.7c1.5,1.9,3.3,3.5,5.1,5c-1,1.5-1.5,3.3-1.5,5.1c-0.3,1.1-0.4,2.1-0.3,3c-1.6-1.4-3.3-2.9-4.9-4.3c-1.8-1.5-4.5,1.1-2.7,2.7c2.1,1.8,4.1,3.6,6.2,5.3c-0.3,0.5-0.6,1.1-0.8,1.7c-0.2,0.5-0.3,1.1-0.5,1.6c-1-1-2-1.9-2.9-2.9c-1.7-1.7-4.4,0.9-2.7,2.7c1.5,1.5,3,2.9,4.5,4.3c-0.6,2.8-1.1,5.6-1.6,8.4c-2-1.6-3.9-3.3-5.7-5.1c-1.7-1.7-4.4,1-2.7,2.7c2.5,2.4,5.1,4.7,7.8,6.8c-0.1,1.2-0.3,2.4-0.4,3.6c-1.9-1.5-3.8-3-5.8-4.3c-2-1.4-3.9,1.9-1.9,3.2c2.6,1.8,5.1,3.7,7.4,5.8c-0.1,2.9-0.2,5.9-0.2,8.8c-1.2-1.2-2.5-2.5-3.7-3.7c-1.7-1.7-4.4,0.9-2.7,2.7c2.1,2.1,4.2,4.2,6.4,6.4c0,1.8,0.1,3.6,0.1,5.5c-0.9-0.8-1.8-1.6-2.6-2.4c-1.7-1.7-4.4,1-2.7,2.7c1.8,1.7,3.6,3.4,5.4,5.1c0,1.3,0.1,2.6,0.1,3.9c-1.4-1.3-2.8-2.4-4.4-3.4c-2.1-1.3-4,2-1.9,3.2c2.5,1.5,4.7,3.5,6.5,5.9c0,1.1,0.1,2.2,0.1,3.3c-1.7-1.3-3.4-2.8-4.9-4.3c-1.7-1.7-4.4,1-2.7,2.7c2.4,2.3,4.9,4.5,7.7,6.4c0,1.9,0,3.8,0,5.7c0,0.2,0,0.3,0,0.5c-1.1-1-2.1-2.1-3.2-3.1c-1.7-1.7-4.4,0.9-2.7,2.7c1.9,1.9,3.8,3.7,5.8,5.5c0,2.8,0,5.6,0,8.5c-2.1-1.6-4.1-3.4-6.1-5.1c-1.8-1.5-4.5,1.1-2.7,2.7c2.9,2.4,5.7,5,8.8,7.1c0,2.4,0,4.8,0,7.2c-2.2-2.1-4.4-4.2-6.8-6.2c-1.9-1.5-4.5,1.1-2.7,2.7c3.2,2.6,6.1,5.5,9,8.4c0.1,0.1,0.3,0.2,0.4,0.3c0,1.9,0,3.7,0,5.6c-1.7-1.4-3.4-2.7-5-4.3c-1.7-1.7-4.4,1-2.7,2.7c2.4,2.3,5,4.3,7.6,6.3c0,0,0.1,0,0.1,0c0,1.8,0,3.6,0,5.4c-1.3-1.1-2.6-2.3-3.9-3.6c-1.7-1.7-4.4,1-2.7,2.7c2,2,4.2,4,6.6,5.7c0,1.6,0,3.2,0,4.8c-1.2-0.9-2.3-1.9-3.3-2.9c-1.7-1.7-4.4,1-2.7,2.7c1.9,1.8,3.9,3.4,6,4.9c0,2,0,4,0,6c-1.1-1.1-2.3-2.2-3.4-3.3c-1.7-1.7-4.4,0.9-2.7,2.7c2,2,4,3.8,6,5.7c0,2.2,0,4.3,0,6.5l-3.4-3.4c-1.7-1.7-4.4,0.9-2.7,2.7c2,2,4,4,6,6c0,2,0,4-0.1,6.1c-1.5-1.5-2.9-3-4.2-4.7c-1.4-1.9-4.7,0-3.2,1.9c2,2.6,4.3,5,6.6,7.3c-21.8-6.8-43.7-13.2-66.3-16.7c-0.6-0.2-1.3-0.3-2-0.3c0,0-0.1,0-0.1,0c-3.6-12.7-6.1-25.7-10.6-38.1c-5.6-15.2-15.2-27.4-27.5-37.1c-0.7-1.6-2.2-2.9-4.5-3.3c-2.2-1.5-4.4-3-6.7-4.4c-5.9-3.5-11.1-5.3-15.6-5.7c0.3-18.4-1.1-36.7-0.8-55.1c0.4-19.5,4.8-38.4,13.1-56c14.2-30,38.2-57.4,65.5-76.2C210,300.5,242,302.4,273.9,305.6z M315.2,339.8c0.8-0.8,1.4-1.6,1.7-2.5c5.2,1.4,10.4,2.8,15.7,4.1c-9.7,12-24.5,20.3-37.2,28.3c-11.2,7-22.8,13.9-33.3,22c1.9-8,3.5-16,5-24.1C283.7,360.1,301.9,352.4,315.2,339.8z M270,352c1.6-8.7,3.2-17.4,5-26.1c9.3,2.3,18.5,4.9,27.6,7.4C293.2,341.2,281.4,346.9,270,352z M406.2,446.7c-2.2,0.3-4.3,0.6-6.5,1c2.3-4.8,4.7-9.6,6.9-14.5c0.8-1.7,1.7-4.5,2.8-6.9c1.5,1.8,3,3.6,4.5,5.3C411.3,436.6,408.8,441.7,406.2,446.7z M416.6,434.6c1.1,1.2,2.2,2.5,3.4,3.7c-1.4,2.4-2.8,4.7-4.2,7.1c-1.7,0.2-3.4,0.5-5,0.7C412.7,442.2,414.6,438.4,416.6,434.6z M403.7,430.4c-2.8,6-5.7,11.9-8.5,17.9c-1.6,0.2-3.3,0.4-4.9,0.6c4.8-9.5,9.3-19.1,14.5-28.4c0.7,0.9,1.4,1.8,2.1,2.7C405.6,425.5,404.6,428.4,403.7,430.4z M385.8,449.3c-1.9,0.2-3.7,0.3-5.6,0.4c5.3-9.8,10-20,15.7-29.5c0.7,0,1.5-0.4,1.8-1.3c0.2-0.6,0.5-1.3,0.7-1.9c1.1-0.1,2.3-0.2,3.4-0.4c0.1,0.2,0.3,0.4,0.4,0.6C396.3,427.6,391.3,438.6,385.8,449.3z M375.9,449.7c-0.2,0-0.4,0-0.6,0c-1.6,0-3.2-0.1-4.7-0.3c5.3-10.7,9.7-22.3,17-31.5c1.8-0.1,3.6-0.3,5.4-0.4C386.9,428,381.8,439.1,375.9,449.7z M372.7,418.4c0.7,0,1.3,0,2,0c-4.9,8.1-9.9,16.2-14.8,24.4c-0.4-0.8-0.7-1.6-0.9-2.5c0-0.1,0-0.1,0-0.2C363.4,432.7,368.5,425.9,372.7,418.4z M358.6,433.7c0.3-5.1,1.9-10.4,3.4-15.1c2.1,0,4.3,0,6.4,0C365.3,423.7,361.8,428.6,358.6,433.7z M379.2,418.3c1.2,0,2.5-0.1,3.7-0.1c-6.5,9.3-10.8,20.3-16,30.4c-1.7-0.6-3.3-1.4-4.5-2.5C367.8,436.7,373.6,427.5,379.2,418.3z M358.2,403.5c-3.1,0-5.2,1.6-6.3,3.7c-1.5,0.8-2.8,2.2-3.4,4.3c-1.4,4.6-2.7,9.6-3.6,14.8c-27.4-4.6-54.3-11.8-81.1-18.9c25.7-22.7,63.6-33.8,82.9-62.9c2,0.4,3.9,0.8,5.9,1.2c0.6,0.1,1.2,0.1,1.7,0.1c0,0.1,0,0.1,0.1,0.2c11.3,19.6,25.8,37.1,37.6,56.4c0.1,0.2,0.2,0.3,0.3,0.4C380.8,403.6,369.4,403.5,358.2,403.5z M149.5,576.6c0.5-0.4,1-0.9,1.4-1.5c0.7,2.7,1.5,5.4,2.3,8c-1.3-0.5-2.5-1-3.8-1.4C149.5,580,149.5,578.3,149.5,576.6z M154.6,587.7c1,3.1,2.1,6.1,3.4,9.1c-3.5-2-7-4-10.5-6.2c0,0,0,0,0,0c0.6-1.7,1-3.4,1.3-5.1C150.7,586.3,152.7,587,154.6,587.7z M142.8,546c1.5,4.3,2.7,8.8,3.9,13.3c-1.7-3.1-3.8-5.9-6.4-8.2C141.2,549.4,142,547.7,142.8,546z M137.3,548.8c-1.3-0.8-2.8-1.5-4.3-2c1.4-5.1,3-10.7,3.4-16c1.7,3.3,3.2,6.7,4.6,10.2C139.8,543.6,138.5,546.2,137.3,548.8z M85.2,567.5c-0.1-1-0.3-2-0.4-3c6.2,3.3,12,7.2,17.8,11.1c-0.2,1-0.3,2-0.4,3c-6-2.2-11.8-5-17.4-8.1C85.2,569.6,85.3,568.7,85.2,567.5z M84.9,560.3c-0.2-0.1-0.3-0.1-0.5-0.1c0.3-3.2,0.8-6.3,1.4-9.4c6.2,5.6,12.8,10.9,18.9,16.6c-0.5,1.4-1,2.8-1.3,4.3C97.4,567.6,91.4,563.5,84.9,560.3z M87.8,547.4c-0.3-0.3-0.7-0.4-1-0.5c0-0.1,0-0.1,0-0.2c0.7-2.8,1.6-5.5,2.7-8.1c6.1,7,13.4,13.1,19.5,20c-0.2,0.3-0.4,0.6-0.6,0.9c-0.8,1.3-1.4,2.6-2.1,4C100.3,558.1,93.8,553,87.8,547.4z M88.7,510.3c0.5-1.4,1.1-2.9,1.8-4.2c0.2-0.5,0.5-0.9,0.7-1.3c0.9-0.1,1.9-0.3,2.8-0.3C92.1,506.2,90.4,508.2,88.7,510.3z M91.2,534.9c1.7-3.6,3.8-7,6-10.4c4.5,8.1,9.2,16,13.9,23.9c0.8,1.4,1.6,2.9,2.5,4.5c-0.8,0.9-1.6,1.8-2.3,2.7C104.8,548.6,97.3,542.3,91.2,534.9z M95.2,500.6c1.5-0.8,3-1.1,4.7-1c-0.4,0.3-0.8,0.6-1.2,0.9C97.5,500.5,96.4,500.5,95.2,500.6z M99.5,521.1c1.6-2.2,3.5-4.5,5.6-6.6c2.3,6.6,4.6,13.2,7,19.7c1.8,4.7,3.6,10.3,6.6,14.6c-0.7,0.5-1.4,0.9-2.1,1.5c-0.6-1.3-1.3-2.6-2.2-3.7C108.5,539.2,104,529.6,99.5,521.1z M114.3,529.3c-2.2-5.8-4.1-11.7-6.2-17.5c2.7-2.1,5.7-3.5,8.8-3.5c0.6,0.5,1.2,0.9,1.7,1.4c3,12,4.7,24.4,5.2,36.8c-0.6,0.2-1.2,0.3-1.8,0.6C118.3,542.1,116.4,534.9,114.3,529.3z M27.8,490.8c1.7,0.8,3.4,1.7,5.1,2.4c-1.2,1.2-2.3,2.4-3.3,3.6C29,494.8,28.4,492.8,27.8,490.8z M31,501.1c1.7-2.2,3.5-4.3,5.6-6.2c1.2,0.5,2.5,1,3.7,1.6c-2.8,2.5-5.4,5.4-7.9,8.2C31.9,503.4,31.5,502.3,31,501.1z M34,508.3c3.2-3.5,6.4-7.4,10.1-10.4c0.9,0.4,1.9,0.7,2.8,1.1c-4.4,3.4-8.4,7.2-11.9,11.5C34.8,509.8,34.4,509.1,34,508.3z M37,514.1c4.1-5.2,8.9-9.7,14.2-13.6c1.9,0.7,3.8,1.3,5.7,1.9c-6.1,4.9-12,10.1-17.6,15.6C38.5,516.8,37.7,515.5,37,514.1z M41.3,521.3c6.3-6.1,12.9-12,19.9-17.4c2.2,0.7,4.5,1.4,6.7,2c-8.1,6.2-16.3,12.3-23.6,19.5C43.3,524,42.3,522.6,41.3,521.3z M69.2,550.7c-1.1-0.9-2.1-1.9-3.1-2.8c1.1-1.1,2.1-2.1,3.2-3.2C69.2,546.7,69.1,548.8,69.2,550.7z M69.5,539.2c-2.1,2-4.2,4.1-6.2,6.2c-1.4-1.3-2.8-2.6-4.2-3.9c3.6-3.1,7.3-6.2,10.9-9.3C69.8,534.5,69.6,536.9,69.5,539.2z M70.6,526.8c-4.8,3.9-9.5,7.9-14.2,12c-1-1-1.9-1.9-2.9-2.9c6.1-6.1,12.2-12.4,18.6-18.2C71.5,520.6,71,523.7,70.6,526.8z M73.6,511.3c-8,6.8-15.3,14.4-22.7,21.8c-1.4-1.6-2.9-3.2-4.2-4.8c7.9-7.8,16.9-14.4,25.7-21.1c0.8,0.2,1.5,0.4,2.3,0.6C74.3,508.9,73.9,510.1,73.6,511.3z M80.9,493.9c-16.7-4.5-33.6-9.8-49-18c0.5-1.3,0.7-2.7,0.4-4.3c-4-20.8-6.9-45.1-1.8-66c3.2-13,15.8-14.8,27.1-17.6c9.5-2.4,10.1-8.1,14.3-16.3c4.5-8.7,10.4-16.7,16.5-24.3c12.6-15.5,27.5-29.6,43.6-41.3c7.4-5.4,15.7-9.2,24.4-11.9c-23.6,19.3-43.4,44-56.9,71c-8.9,17.8-13.4,37-14.9,56.7c-1.6,21.7,1.1,43.6,0.4,65.3c0,0.6,0,1.2,0.1,1.7c-1.5,1.4-3,3-4.2,4.9C81,494,81,493.9,80.9,493.9z M85.1,583.5c-0.5-3-0.9-6.1-1-9.1c5.8,3.2,11.8,5.9,18,8.2c0,1.2,0.1,2.4,0.2,3.7C96.5,585.5,90.8,584.5,85.1,583.5z M85.9,587.4c5.2,0.9,10.4,1.9,15.6,2.4c-4.5,1.6-9.1,3.1-13.6,4.7C87,592.2,86.4,589.8,85.9,587.4z M89.1,598.1c4.8-1.7,9.7-3.3,14.5-5c0.2,0.7,0.4,1.4,0.7,2c-4.1,3.2-8,6.6-11.7,10.3C91.2,603.1,90.1,600.6,89.1,598.1z M98.6,614.2c-1.5-1.7-2.8-3.6-4-5.5c3.6-3.6,7.4-7,11.4-10.1c1.1,1.9,2.4,3.7,4,5.3c-2.9,4.8-5.6,9.7-7.4,14.9C101.1,617.2,99.8,615.6,98.6,614.2z M105.5,622c1.6-5.5,4.3-10.7,7.3-15.7c1.5,1.1,3.2,2,5.2,2.7c-2.5,6.3-4.3,13-5.8,19.7C109.8,626.4,107.6,624.2,105.5,622z M127.8,640.5c-4.3-2.5-8.5-5.6-12.4-9c1.7-7.3,3.8-14.4,6.4-21.5c1.8,0.4,3.5,0.5,5.2,0.4C127.4,620.5,128,630.5,127.8,640.5z M127.6,546c-0.5-10.9-1.8-21.7-4.1-32.3c3.5,3.2,6.5,6.8,9,10.5c1.2,6.7-1.1,14.8-3.2,21.8C128.7,546,128.1,546,127.6,546z M131.5,642.5c0.3-10.4-0.3-20.7-0.7-31.1c5,11.6,10.4,23,14.1,35C140.3,646,135.9,644.6,131.5,642.5z M150.3,646.4c-0.5,0-1,0.1-1.5,0.1c-3.8-13-9.9-25.3-15.2-37.8c1.3-0.6,2.5-1.4,3.6-2.3c9.3,10.9,18.6,21.8,26.1,34C160.1,643.7,155.8,645.9,150.3,646.4z M166,637.5c-7.6-12-16.8-22.8-26-33.6c0.8-0.8,1.5-1.7,2.2-2.6c10.8,7,21.5,14.8,29.9,24.3C170.5,630,168.6,634.1,166,637.5z M173.4,621.5c-8.3-9-18.8-16.7-29.2-23.4c0.7-1.3,1.4-2.6,1.9-3.9c4.5,2.8,9,5.3,13.6,7.9c0.6,2.2,2.1,4.2,4.8,5.2c3.9,1.4,7.8,2.8,11.7,4.1C175.4,614.7,174.5,618.1,173.4,621.5z M180.5,642.1c0.7-1.3,1.4-2.6,2.1-3.9c2.2,0,4.4-0.1,6.6-0.2C186.5,639.6,183.6,640.9,180.5,642.1z M194.5,633.8c-3.4,0.3-6.8,0.4-10.2,0.5c0.5-1.1,0.9-2.2,1.3-3.3h11.5C196.3,632.1,195.5,633,194.5,633.8z M199.9,627.3H187c0.4-1.2,0.8-2.4,1.2-3.5c4.5-0.2,8.9,0.1,13.4,0.5C201.1,625.4,200.5,626.4,199.9,627.3z M203.2,620.7c-4.6-0.5-9.2-0.9-13.8-0.8c0.4-1.2,0.7-2.4,1.1-3.6C194.7,617.9,198.9,619.3,203.2,620.7C203.2,620.7,203.2,620.7,203.2,620.7z M473.6,609.8c-8.2,18.8-13.4,40.7-11.1,61.4c-98.6-15.7-195.1-43.2-289.1-76.6c-1-2-1.9-4-2.7-6c45.3,8.3,87.9,27.5,133,36.7c41.9,8.6,86.6,13.5,125.8,31.4c8.5,3.9,15.9-8.2,8.3-12.6c-2.2-15.2-6-30-8.3-45.2c-2.5-16.6-1-33.1,2.4-49.4c6.1-29.5,17.2-58.3,29.2-85.9c0.3-0.7,0.5-1.5,0.6-2.2c2-1.7,3.2-4.2,2.7-7.3c-0.9-5.2-4.7-9.9-6.8-14.7c-3.3-7.5-6.4-15-9.6-22.5c-6.6-15.5-13.4-30.9-21.6-45.6c-12.2-22.1-28.2-45.2-50.2-58.5c-11-6.6-23.5-9.9-35.9-12.5c-18.4-3.9-37-6.5-55.7-8.6c-24.3-2.8-48.8-4.5-73.2-6.7c14.2-1.7,28.4-3.2,42.5-4.7c22.6-2.3,45.2-4.7,67.7-8.1c19.1-2.9,39.5-5.9,57.9-12.6c-2.5,6.2-5,12.4-7.8,18.6c-1.4,3.2-0.6,6.3,1.2,8.4c0.8,1.7,2.3,3.1,4.5,3.9c11.5,3.7,22,9.9,34,11.3c1.2,0.5,2.7,0.7,4.3,0.2c1.1-0.1,2.1-0.5,2.9-1c38.3-13.9,79.4-5.5,118.6-13.8c4.7,0.3,10-4.8,8-10.6c12.7,3,25.4,6,38,9.3c-22.5,3.8-45.5,4.9-68.4,6.5c-16,1.1-32,2.7-47.8,5.5c-12.2,2.1-25.6,1.6-37.3,5.8c-23,8.2-12.8,32.7-5.9,49c7.7,18.1,16,35.7,25.1,53c0.2,1.5,1,2.9,2.1,3.9c4.4,8.1,8.9,16.2,13.7,24.1c0,4.4,3.7,9.3,9.4,8.4c80.5-12.5,161.3-23,241.7-36.3c0.6-0.1,1.2-0.3,1.7-0.5c4.3,3.4,8.7,6.6,13.4,9.5c18.3,11.2,40.6,17.3,60.6,24.8c37.9,14.2,75.7,28.7,111.6,47.4c-40.7,10.1-82.4,17.5-122.5,29.6c-32.2,9.8-70.6,28.3-104.8,18.4c-0.7-0.4-1.6-0.8-2.6-0.9c-0.3,0-0.6-0.1-0.9-0.2c-1-0.3-1.9-0.7-2.9-1.1c-1.5-0.6-2.8-0.7-4-0.4c-12.7-3.3-24.4-9-36.1-15.1c-15.1-7.8-30.1-14.9-45.7-21.5c-32.2-13.6-63.8-28.8-92.7-48.6c-8-5.5-15.5,7.5-7.6,13c29.9,20.5,62.6,35.9,95.9,50c15.6,6.6,30.5,13.9,45.5,21.7c13.8,7.2,28.2,13.9,43.6,16.6c36,12.9,77.2-4.7,111.4-15.7c22.2-7.1,45.2-11.5,67.9-16.7c25-5.7,50-11.7,74.8-18.4c4.5,2.5,9,5.2,13.2,8.1c-11.4,3.5-22.8,7.3-32.3,14.7c-12.6,9.9-17.1,27.4-9,41.8c11.7,20.7,45.3,14,65.8,4.4c-2.1,8.9-12.7,13.9-20.4,16.9c-11.6,4.5-24,6.9-36.2,9.3c-32.8,6.6-64,19.7-95.6,30.5c-36.9,12.6-74.8,23.7-114.1,23.2c-38.3-0.5-77.3-9.8-112.4-25c-0.8-2.5-1.6-4.9-2.6-7.3c-9.1-23.2-30.9-50-58.7-47.8C497.1,568.1,482,590.4,473.6,609.8z M890.3,611.9c2.9-0.8,5.8-1.6,8.6-2.3c-10.3,21.4-18.9,43.6-31,64c-4.3,1.2-8.7,2.3-13.1,3.5C867.6,655.9,877.1,632.8,890.3,611.9z M849.6,678.4c-3.1,0.8-6.2,1.6-9.2,2.4c0,0,0,0-0.1,0c11.4-21.4,19.5-45,34.2-64.3c3.5-1.1,6.9-2.1,10.4-3.1C872.1,634.5,862.7,657.5,849.6,678.4z M499,653.4c6.8,3.6,13.3,7.8,19.5,12.4c-6.7-1.7-13.5-3.1-20.1-5.5C498.6,658,498.7,655.7,499,653.4z M488.1,613.7c0.9-2,1.9-4,2.9-6.1c0.1,0,0.1,0,0.2,0c5.6-2.5,11.4-4.5,17.3-6.3c-2.9,2.3-5.6,4.9-8,7.9C496.3,610.8,492.2,612.3,488.1,613.7z M499.6,649.5c0.5-2.8,1-5.7,1.7-8.5c6.9,5.7,13.1,12.2,18.9,19c-0.2,0.7-0.4,1.4-0.5,2.1C513.3,657.4,506.6,653.1,499.6,649.5z M502.3,637c0.1-0.4,0.2-0.9,0.4-1.3c1.4-4.6,3.3-8.6,5.5-12.2c5.6,9.3,10.8,18.9,14.8,28.9c-0.5,1.1-1,2.2-1.5,3.3C515.6,649.1,509.3,642.7,502.3,637z M510.6,620.2c2.7-3.6,5.9-6.5,9.4-8.9c3.2,11.5,5.4,23.1,7.6,34.8c-0.7,0.8-1.4,1.6-2.1,2.5C521.4,638.7,516.2,629.4,510.6,620.2z M523.3,609.3c1.7-0.9,3.5-1.7,5.4-2.4c3.1,11.2,5,22.8,6.2,34.4c-1.5,0.5-2.8,1.2-4.1,2.1C528.7,631.9,526.5,620.5,523.3,609.3z M532.3,605.7c2.5-0.7,5.1-1.2,7.9-1.5c0.3,11.9,1.1,23.8,1.5,35.7c-1,0-2.1,0.1-3,0.3C537.4,628.6,535.4,617,532.3,605.7z M519.6,594.5c-8.7,2.2-17.3,4.6-25.6,7.9c1.9-3.1,4-6.1,6.3-8.8c12.5-3.3,25.3-5.5,37.8-8.9c2.2,1.2,4.2,2.6,6.2,4.2C535.4,589.2,527.1,591.1,519.6,594.5z M505.5,588.5c5.1-4.3,11-7.3,17.8-7.5c3.3-0.1,6.3,0.4,9.2,1.3C523.5,584.6,514.5,586.4,505.5,588.5z M553,604.2c-0.6,12.2-2.4,24.3-3.9,36.4c-1.3-0.3-2.5-0.5-3.7-0.6c-0.4-12-1.2-24.1-1.5-36.1C546.9,603.8,549.9,603.9,553,604.2z M556.7,604.7c0.2,0,0.4,0.1,0.7,0.1c2.1,3.5,4,7.1,5.6,10.7c-1.9,9.1-5.2,17.9-8.3,26.7c-0.7-0.2-1.3-0.4-1.9-0.6C554.3,629.3,556.1,617,556.7,604.7z M565.4,621.2c1.5,3.8,2.7,7.4,3.7,10.7c0.4,1.3,0.7,2.7,1.1,4c-3,3.1-5.8,6.4-8.6,9.7c-1.1-0.9-2.3-1.6-3.5-2.1C560.8,636.2,563.5,628.8,565.4,621.2z M571.3,640.3c0.5,2,1,4.1,1.4,6.1c-2.1,1.6-4.3,3.2-6.4,4.8c-0.4-0.6-0.7-1.2-1.1-1.7c-0.3-0.4-0.6-0.8-0.9-1.2C566.5,645.6,568.8,642.9,571.3,640.3z M573.5,650.5c0.7,3.3,1.3,6.6,2,9.9c-1.5,0.6-3,1.1-4.5,1.4c-0.8-2.5-1.7-5-2.9-7.3C569.9,653.1,571.7,651.8,573.5,650.5z M573.9,681.1c0.1,0,0.3,0,0.4,0c1.8-0.3,3.6-0.5,5.4-0.7c1,3.9,2.1,7.8,3.3,11.7c-3.1-1-6.2-1.8-9.4-2.3c0-0.1,0-0.2,0-0.3C574,686.8,574,684,573.9,681.1z M573.8,677.4c0-0.6-0.1-1.3-0.2-1.9c1.6-0.4,3.2-0.7,4.8-1c0.2,0.8,0.3,1.5,0.5,2.3C577.2,676.9,575.5,677.1,573.8,677.4z M573.2,671.8c-0.3-2.1-0.7-4.3-1.2-6.4c1.5-0.3,2.9-0.7,4.3-1.3c0.4,2.2,0.9,4.5,1.4,6.7C576.1,671.1,574.6,671.5,573.2,671.8z M573.2,693.5c3.9,0.7,7.7,1.7,11.5,3.1c1.4,3.8,3,7.5,4.9,11.2c0.2,0.4,0.4,0.6,0.6,0.9c-6-2.8-11.9-5.6-17.3-9.5c-0.3-0.2-0.7-0.3-1-0.3C572.5,697,572.9,695.2,573.2,693.5z M587,643.8c-0.3-1.5-0.6-3-0.9-4.5c1.3,0.5,2.7,1,4,1.5C589,641.8,588,642.8,587,643.8z M593.9,642.2c0.9,0.3,1.8,0.6,2.8,1c-2.9,2.5-5.6,5.2-8.3,7.9c-0.2-0.9-0.4-1.9-0.5-2.8C589.9,646.2,591.9,644.2,593.9,642.2z M590.1,660c-0.3-1.4-0.6-2.9-0.8-4.3c3.7-3.9,7.4-7.8,11.6-11c0.9,0.3,1.9,0.6,2.8,0.9C599,650.1,594.1,654.7,590.1,660z M607.7,646.8c1.1,0.4,2.2,0.7,3.4,1c-6,7.4-12.7,14.1-19.1,21c-0.3-1.3-0.5-2.5-0.8-3.8C595.6,658.2,602,652.5,607.7,646.8z M615,649c1.6,0.4,3.2,0.9,4.7,1.3c-9.1,9-17,19.1-25.1,29.1c-0.6-2-1.1-4.1-1.6-6.1C600.4,665.2,608.2,657.5,615,649z M623.9,651.4c1.7,0.4,3.4,0.8,5.1,1.2c-9.9,12.7-21.4,23.9-31.1,36.6c-0.7-1.8-1.3-3.7-1.9-5.6C604.9,672.6,613.7,661.3,623.9,651.4z M632.9,653.6c1.7,0.4,3.4,0.8,5.2,1.1c-12.5,13.3-24.4,27-35.7,41.3c-0.6-0.1-1.2-0.3-1.8-0.4c-0.1,0-0.2,0-0.3,0c-0.3-0.7-0.6-1.4-0.9-2.1C609.8,679.4,622.4,667.3,632.9,653.6z M599.1,710.6c3.1,0.7,6.2,1.5,9.4,2.3c-0.1,1.6-0.3,3.2-0.6,4.8c-3.8-2.3-7.7-4.3-11.7-6.1C597.2,711.4,598.2,711.1,599.1,710.6z M606.4,696.9c11.3-14.4,23.5-28.1,36-41.4c1.9,0.4,3.8,0.7,5.8,1.1c-10.9,14.7-21.5,30.8-36.3,41.6C610.1,697.8,608.2,697.4,606.4,696.9z M652.3,657.4c2.2,0.4,4.4,0.7,6.5,1c-12.2,14.1-24.1,28.5-36.5,42.6c-2-0.5-3.9-1-5.9-1.5C630.9,688,641.3,671.9,652.3,657.4z M623.2,716.5c4,1,8,1.9,12,2.8c-4.2,0.6-8.5,1.2-12.7,1.8C622.7,719.6,623,718,623.2,716.5z M632.7,703.4c-2.1-0.5-4.1-1-6.2-1.5c12.4-14.2,24.4-28.7,36.8-43c1.4,0.2,2.8,0.3,4.1,0.5C655.4,673.8,645.4,689.7,632.7,703.4z M482.9,668c-0.7,0.2-1.4,0.4-2,0.7c-1.1,0.6-2.3,1.1-3.4,1.7c-0.2-1.2-0.3-2.4-0.4-3.7c2-0.5,3.9-1.1,5.8-1.7C482.9,666.1,482.9,667.1,482.9,668z M483,661.1c-2,0.6-4.1,1.2-6.1,1.8c0-2,0-4,0.1-6.1c2.1-0.3,4.2-0.7,6.3-1.1C483.2,657.6,483.1,659.3,483,661.1z M483.7,651.9c-2.1,0.4-4.3,0.8-6.4,1.1c0.1-1.5,0.3-3.1,0.6-4.6h6.3C484,649.6,483.8,650.8,483.7,651.9z M484.8,644.7h-6.3c0.2-1.2,0.4-2.4,0.7-3.5c2.2-0.3,4.4-0.7,6.6-1.1C485.4,641.6,485.1,643.1,484.8,644.7z M486.8,635.9c-2.2,0.6-4.5,1-6.8,1.4c0.6-2.3,1.2-4.6,1.9-6.8c2.5-0.9,5-1.7,7.6-2.5C488.5,630.5,487.6,633.2,486.8,635.9z M491.5,623.4c-2.7,1-5.4,1.8-8.1,2.7c0.9-2.6,1.8-5.1,2.8-7.6c3.4-1.2,6.8-2.5,10.2-3.7C494.6,617.4,493,620.3,491.5,623.4z M498.3,664.3c6.6,2.3,13.5,3.7,20.2,5.4c-0.1,1-0.2,2-0.2,3.1c-6.7-0.9-13.3-1.6-20.1-1.8C498.2,668.7,498.2,666.5,498.3,664.3z M498.4,674.7c6.7,0.3,13.3,1,19.9,1.8c0,1.9,0.1,3.9,0.3,5.8c-6.5,0.7-12.9,1.4-19.4,1.6C498.8,680.9,498.5,677.8,498.4,674.7z M499.6,687.7c6.5-0.2,12.9-0.9,19.4-1.6c0.2,1.3,0.4,2.6,0.6,3.9c-6.3,1.6-12.6,3.1-18.9,4.4C500.3,692.2,499.9,689.9,499.6,687.7z M501.3,698.1c6.4-1.3,12.7-2.8,19-4.4c0.2,0.9,0.5,1.9,0.7,2.8c-6.1,2.5-12.3,4.9-18.5,7.4C502.1,702,501.7,700.1,501.3,698.1z M504.5,711.9c-0.3-1.2-0.7-2.5-1-3.7c0-0.2-0.1-0.3-0.1-0.5c6.2-2.6,12.4-5,18.7-7.5c0.2,0.8,0.5,1.5,0.8,2.3C516.8,705.6,510.7,708.8,504.5,711.9z M505.6,715.5c6.3-3.1,12.5-6.3,18.7-9.6c0.4,1,0.9,2,1.4,3c-6.1,4.1-12.1,8.4-17.9,12.9C506.9,719.7,506.3,717.6,505.6,715.5z M509.1,725.5c6-4.6,12.1-9.1,18.3-13.3c0.2,0.4,0.4,0.8,0.7,1.1c-5.9,5.1-11.9,10.2-17.6,15.6C510,727.8,509.5,726.6,509.1,725.5z M512.1,732.5c5.8-5.6,11.9-10.8,18-16c0.2,0.3,0.4,0.5,0.6,0.8c-4.7,7.2-10.5,13.5-16.2,19.9C513.7,735.7,512.9,734.1,512.1,732.5z M516.5,740.6c5.8-6.6,11.8-13,16.7-20.3c1.2,1.3,2.5,2.5,3.8,3.5c-2.4,5-4.9,10-7.4,14.9c-1.9,3.7-3.6,8.1-5.8,11.9C521.1,747.6,518.7,744.2,516.5,740.6z M526.5,753.4c2.1-3.6,3.8-7.7,5.7-11.3c2.2-4.4,4.5-8.8,6.6-13.3c-2.8,9.4-5.6,18.8-8.2,28.2C529.1,755.9,527.8,754.7,526.5,753.4z M546.3,765.3c-4.6-1.3-8.7-3.3-12.5-5.8c3-10.9,6.2-21.6,9.4-32.4c0.7,0.2,1.3,0.3,1.9,0.5C546,740.1,547.8,752.9,546.3,765.3z M549.9,766.2c1.6-12.7-0.2-25.7-1.1-38.6c1.9-0.2,3.6-0.8,5.3-1.7c-0.1,0.3-0.1,0.5,0,0.8c2.4,13.4,3.7,27,6.5,40.4C556.9,767.2,553.3,766.9,549.9,766.2z M564.5,767c-2.8-13.3-4.2-26.8-6.5-40.2c6.1,12.3,10.7,25.4,14.3,38.7C569.8,766.2,567.2,766.7,564.5,767z M575.8,764.2c-3.8-14.2-8.9-28.3-15.6-41.3c8.3,12,16.7,25,20.7,38.8C579.3,762.6,577.6,763.5,575.8,764.2z M584.2,759.5c-4.4-14.5-13.4-28.1-22.2-40.5c0.5-0.7,1.1-1.4,1.6-2.2l31.6,31.6C592.1,752.7,588.4,756.5,584.2,759.5z M597.5,745.3l-31.7-31.7c1.1-1.9,2.1-3.8,3-5.8c11,8.3,22.2,16.7,32,26.3c0.9,0.8,1.9,0.6,2.6,0C601.7,738,599.8,741.8,597.5,745.3z M603.4,731.5c-10.2-10-21.7-18.7-33.2-27.2c0.2-0.6,0.5-1.3,0.7-1.9c0.1,0,0.1,0.1,0.2,0.2c11.2,8,24.6,11.8,36.1,19.1c-0.8,3.7-1.9,7.4-3.3,11C603.9,732.2,603.7,731.9,603.4,731.5z M605.4,760c0.7-0.8,1.3-1.8,1.9-2.6c4.5-1.2,9.1-2.4,13.7-3.5C616.4,756.5,611,758.5,605.4,760z M628,748.4c-5.9,1.2-11.7,2.7-17.5,4.2c0.7-1.1,1.3-2.2,1.9-3.3c0,0,0,0,0,0c5.7-1.1,11.5-1.9,17.3-3C629.2,747,628.6,747.7,628,748.4z M632.5,741.9c-5.9,1.3-11.9,2.1-17.8,3.2c0.6-1.2,1.2-2.5,1.7-3.7c0.2,0,0.4,0,0.6,0c5.9-1.5,11.7-3,17.6-4.6C633.9,738.5,633.3,740.3,632.5,741.9z M635.5,732.6c-5.8,1.6-11.6,3.1-17.5,4.6c0.7-1.8,1.3-3.6,1.8-5.4c5.4-1.8,10.8-3.2,16.4-4.1C636,729.4,635.8,731,635.5,732.6z M636.8,723.9c-5.3,0.8-10.6,1.9-15.7,3.6c0.2-0.8,0.4-1.6,0.5-2.4c5.1-0.7,10.2-1.5,15.3-2.2C636.8,723.2,636.8,723.5,636.8,723.9z M636.9,704.4c12.6-14,22.7-30.2,35-44.5c1.9,0.2,3.9,0.3,5.8,0.5c-11.7,15.1-23,30.4-34.8,45.4C640.9,705.4,638.9,704.9,636.9,704.4z M646.9,706.7c11.9-15.2,23.4-30.7,35.2-45.9c2.1,0.1,4.1,0.2,6.2,0.3c-9,17.3-22.1,32.3-35,46.9C651.2,707.6,649.1,707.2,646.9,706.7z M657.6,708.9c13-14.7,26.2-30,34.9-47.6c2.8,0.1,5.6,0.1,8.4,0c-11.6,17.1-25.3,32.6-38.6,48.4C660.8,709.5,659.2,709.2,657.6,708.9z M666.6,710.5c13.5-16,27.3-31.8,38.9-49.3c3.3-0.1,6.6-0.3,9.9-0.6c-13.1,17.6-26.2,35.2-41.4,51C671.6,711.3,669.1,710.9,666.6,710.5z M678.7,712.1c15.2-16.2,28.5-34.1,41.7-52c4-0.4,8-0.9,12-1.5c-6.7,8.9-13.9,17.4-20.5,26.3c-7.2,9.7-13.4,20.9-23.4,28C685.3,712.8,682,712.5,678.7,712.1z M694.2,713.2c7.2-6.2,12.4-14.4,17.9-22.2c8.1-11.5,17.4-22,25.6-33.3c2-0.3,4.1-0.8,6.1-1.1c-12.6,18.7-26.2,36.8-37.4,56.5C702.3,713.3,698.3,713.4,694.2,713.2z M720.3,711.8c-0.6,0.1-1.3,0.2-1.9,0.3c-2.5,0.3-5,0.6-7.4,0.8c11.5-19.8,25.4-38.1,38-57.2c2.8-0.6,5.6-1.2,8.4-1.9C744.5,672.8,730.7,691.2,720.3,711.8z M724.9,711.1c10.8-20.7,25-39.2,37.9-58.6c3.8-1,7.7-2,11.5-3c-12.6,20.8-26.1,41.1-41.3,60C730.3,710,727.6,710.6,724.9,711.1z M738.8,708c14.9-19.1,28.2-39.4,40.7-60.2c4.1-1.2,8.2-2.4,12.2-3.7c-12.3,20.7-26.2,40.4-39.8,60.3C747.7,705.7,743.3,706.9,738.8,708z M757.7,702.8c13.6-19.8,27.4-39.5,39.4-60.3c4-1.3,8-2.6,12-4c-11.9,21.3-23.4,43.1-40.2,60.9C765.2,700.5,761.5,701.7,757.7,702.8z M789.5,693.8c-2.7,0.7-5.4,1.4-8.1,2.1c-1.9,0.5-3.8,1-5.7,1.6c15.7-18.2,26.9-39.8,38.7-60.7c0.3-0.1,0.6-0.2,0.9-0.3c3-1,6.1-2.1,9.1-3.1C815,654.7,801.4,673.9,789.5,693.8z M794.7,692.5c12-19.9,25.4-39.2,34.4-60.8c3.6-1.3,7.2-2.5,10.8-3.7c-11.4,20.6-22.2,41.5-34.3,61.7C802,690.6,798.4,691.5,794.7,692.5z M810.8,688.4c12.1-20.4,23-41.5,34.5-62.2c3.7-1.3,7.4-2.5,11.1-3.8c-13.4,20.3-22.9,42.8-35.8,63.5C817.3,686.7,814,687.5,810.8,688.4z M862.2,620.4c2.1-0.7,4.2-1.4,6.4-2.1c-13.6,19.7-21.6,42.8-33.2,63.7c-3.2,0.8-6.3,1.6-9.5,2.4C838.5,663.4,848.1,640.6,862.2,620.4z M828.3,699.4c2.1-0.5,4.1-1.1,6.2-1.6c4.9,3.2,10.2,5.6,15.8,7.4C841.9,707.8,834.5,705.5,828.3,699.4z M855.2,703c-0.2-0.3-0.5-0.5-0.9-0.6c-5.2-1.3-10.1-3.3-14.8-5.9c2.2-0.6,4.3-1.1,6.5-1.7c3.4,2.6,7,5,10.7,7.3C856.2,702.5,855.7,702.8,855.2,703z M860.1,699.9c-3.2-2-6.4-4-9.5-6.2c2.3-0.6,4.6-1.2,6.9-1.8c2.5,1.3,4.8,2.9,7,4.8C863.1,697.8,861.6,698.9,860.1,699.9z M867.4,694.2c-1.5-1.3-3.1-2.6-4.8-3.7c0.8-0.2,1.6-0.4,2.4-0.6c3.1-0.8,6.2-1.7,9.3-2.5C872.2,689.8,869.9,692.1,867.4,694.2z M879.1,670.4c-2,0.6-4,1.1-6,1.7c11.7-20.5,20.1-42.7,30.6-63.8c2.1-0.5,4.3-1.1,6.4-1.6C899,627.6,888.5,648.8,879.1,670.4z M883.7,669.1c9.6-21.6,20.1-42.7,31.2-63.5c0.9-0.2,1.7-0.4,2.5-0.6c1.1-0.2,2.2-0.5,3.4-0.7c-3.2,6.3-5.8,12.9-8.5,19.4c-6,14.9-14,29.3-22,43.4C888.2,667.8,886,668.5,883.7,669.1z M902,663.7c-2.1,0.7-4.2,1.3-6.3,1.9c6.2-10.8,12.4-21.8,17.1-33.1c4.1-9.7,7.7-19.9,12.7-29.2c2.2-0.5,4.3-1,6.5-1.6c-7.7,21-16.6,41.6-27.5,61.2C903.8,663.1,902.9,663.4,902,663.7z M909.8,661.2c10.5-19.5,19.2-40,26.7-60.9c3.9-1.2,7.8-2.6,11.5-4.2c-3.2,7.6-5.3,15.8-8.7,23.4c-5.7,12.9-11.4,25.7-18.5,37.9C917.2,658.8,913.5,660.1,909.8,661.2z M926.4,655.4c5.6-10,10.3-20.5,15-31c4.3-9.7,6.8-21.1,11.8-30.7c1.7-0.9,3.3-1.8,4.9-2.8c-8.2,18.8-7.8,41.2-19,58.9C934.9,651.9,930.7,653.8,926.4,655.4z M947.5,645.1c-0.7,0.5-1.5,0.9-2.2,1.3c9.5-19.3,8.6-42.7,19.9-61c2-2,3.8-4.1,5.4-6.5c-2.6,20-6.9,39.8-13.4,58.9C954.2,640.5,950.9,642.9,947.5,645.1z M973.6,608.2c-1.4,9-5.1,16.7-10.5,23.3c4.7-15,8-30.5,10.3-46.1C975,592.9,974.7,601,973.6,608.2z"/><path d="M639.5,597.4c1.7,6.1,5.3,11.5,9.9,15.7c3.7,5,8.2,9.4,14.1,12.8c16.3,9.4,37.7,9.4,55.7,6.6c17.5-2.7,35.8-6.8,52.2-13.7c12-5.1,23-15.8,19.6-30.1c-8.8-36.3-61.4-22-86.2-23.3c-17.6-0.9-32.7-13.4-50.4-4.4c-13.5,6.8-19.1,20.4-15.4,34.8C639.1,596.4,639.3,596.9,639.5,597.4z M687.5,577c6.8,2.2,13.7,3.3,20.8,3.6c15.3,0.8,30.2-3.5,45.6-1.8c7.5,0.8,19.1,4,22.1,11.9c6.7,17.6-48.5,25.2-57.3,26.7c-14.8,2.6-31.6,2.7-45.5-3.5c-6.8-3.1-11.4-8.3-14.9-14.5c8.1-5.6,15.3-12.2,23.2-18c0.1,0,0.3-0.1,0.4-0.2c1.8-1.2,3.6-2.3,5.2-3.7C687.3,577.3,687.4,577.1,687.5,577z M676.5,573.3c2.3,0.6,4.6,1.4,6.8,2.2c-9.3,6.3-17.5,14.1-26.8,20.5c-0.7-1.4-1.3-2.8-1.9-4.2c-0.1-0.4-0.3-0.6-0.5-1c6.9-5.9,14-11.5,21.5-16.6C676.1,574,676.4,573.7,676.5,573.3z M670,572.5c0.6,0,1.1,0,1.7,0c-6.5,4.5-12.8,9.4-18.8,14.5C653,578.2,660.4,572.9,670,572.5z"/><path d="M299.3,463.6c-10-1.3-19.9-3.6-30.1-3.8c-9.7-0.2-9.7,14.8,0,15c10.1,0.2,20,2.4,30.1,3.8c4.1,0.5,7.5-3.8,7.5-7.5C306.8,466.6,303.4,464.1,299.3,463.6z"/><path d="M139,428.5c-8-0.2-15.8-2.4-23.8-2.5c-9.7-0.2-9.7,14.8,0,15c8,0.1,15.8,2.3,23.8,2.5C148.7,443.8,148.7,428.7,139,428.5z"/><path d="M144.7,341.4c-8.4,12.1-16.4,24.4-26,35.5c-2,2.3-2.3,4.9-1.6,7.2c-0.7,3.5,0.6,7.6,4.9,9.1c30.4,10.7,62.2,16.2,92.9,25.6c0.7,0.3,1.5,0.6,2.3,0.7c6.4,2,10.2-4.4,8.9-9.4c6.7-27.7,17.6-54.2,24.8-81.7c5.1-3.6,3.7-13.7-4.3-13.8c-21.3-0.2-42.9-4.4-63.1-11c-1.9-0.6-3.6-0.5-5,0.2c-1.2,0.2-2.4,0.8-3.5,1.7c-10.8,9.3-19.4,20.4-27.6,32C145.9,338.4,145,339.9,144.7,341.4z M212.6,402.4c-24.5-7.1-49.6-12.1-73.9-19.6c29.9-17.7,63.2-28.4,93.9-44.5C226,359.7,218.1,380.7,212.6,402.4z M182.5,319c2.4,0.7,4.8,1.4,7.3,2.1c-5.3,2.2-10.6,4.5-15.9,6.7C176.7,324.7,179.5,321.8,182.5,319z M158.5,347.6c17.9-5.8,34.6-14.5,52.3-20.6c0.6-0.2,1.1-0.5,1.6-0.8c3.9,0.7,7.7,1.3,11.6,1.8c-24.8,12.8-51.1,22.3-76,34.8C151.4,357.7,154.9,352.6,158.5,347.6z"/></g></g><g></g><g></g><g></g><g></g><g></g><g></g><g></g><g></g><g></g><g></g><g></g><g></g><g></g><g></g><g></g></g>
</svg>