<?xml version="1.0" encoding="utf-8"?>
<!-- Svg Vector Icons : http://www.onlinewebfonts.com/icon -->
<!DOCTYPE svg PUBLIC "-//W3C//DTD SVG 1.1//EN" "http://www.w3.org/Graphics/SVG/1.1/DTD/svg11.dtd">
<svg version="1.1" xmlns="http://www.w3.org/2000/svg" xmlns:xlink="http://www.w3.org/1999/xlink" x="0px" y="0px" viewBox="0 0 1000 1000" enable-background="new 0 0 1000 1000" xml:space="preserve">
<metadata> Svg Vector Icons : http://www.onlinewebfonts.com/icon </metadata>
<g><path d="M323.2,173.7c78.3,28.4,163.8-9.3,167.4-19.3c3.5-9.7-37.8-93.8-116-122.3c-78.3-28.4-163.4,8.1-167.4,19.3C201.1,68.1,244.9,145.3,323.2,173.7L323.2,173.7z"/><path d="M377.4,405"/><path d="M531.9,274.1c-11,0-20.2-8.5-21-19.6c-5-74.3,23.9-221.1,168.8-244.3c11.4-1.8,22.2,6,24.1,17.4c1.8,11.5-6,22.2-17.4,24.1c-143.7,23-134,192.7-133.5,199.9c0.8,11.6-8,21.6-19.6,22.4C532.8,274.1,532.3,274.1,531.9,274.1z"/><path d="M678,261.6c-43.8,0-140.3,45.7-177.9,62.5c-37.6-16.7-137.9-62.5-181.7-62.5c-167.7,0-244.8,135.9-244.8,303.6c0,23.1,3.1,45.3,7.9,66.9C113.8,834.7,287.9,990,499.6,990c210.6,0,384.2-153.6,417.8-354.7c5.4-22.6,9-45.9,9-70.2C926.4,397.5,845.6,261.6,678,261.6z M328.3,383.2c-4.3,2.6-96.2,60.2-102.8,216.8c-0.6,14.1-12.2,25.2-26.2,25.2c-0.4,0-0.7,0-1.1,0c-14.5-0.6-25.8-12.9-25.2-27.4c7.9-186.9,123.7-257,128.6-259.9c12.5-7.3,28.6-3.2,36,9.4C344.8,359.8,340.7,375.8,328.3,383.2z"/></g>
</svg>